<?xml version="1.0" encoding="utf-8"?>
<!-- Generator: Adobe Illustrator 19.1.0, SVG Export Plug-In . SVG Version: 6.00 Build 0)  -->
<svg version="1.1" id="Livello_1" xmlns="http://www.w3.org/2000/svg" xmlns:xlink="http://www.w3.org/1999/xlink" x="0px" y="0px"
	 viewBox="0 0 573.5 138.1" style="enable-background:new 0 0 573.5 138.1;" xml:space="preserve">
<style type="text/css">
	.st0{fill:#59B35A;}
	.st1{fill:#474341;}
	.st2{fill:#929293;}
</style>
<g>
	<g>
		<path class="st0" d="M58.8,24.4h-45c-5,0-9-4-9-9s4-9,9-9h45c5,0,9,4,9,9S63.8,24.4,58.8,24.4z"/>
	</g>
	<g>
		<path class="st1" d="M150.1,127.4h-8c-5,0-9-4-9-9s4-9,9-9h8c9.2,0,16.8-7.5,16.8-16.8s-7.5-16.8-16.8-16.8h-35.8
			c-19.2,0-34.8-15.6-34.8-34.8S95.2,6.4,114.3,6.4h46.3c5,0,9,4,9,9s-4,9-9,9h-46.3c-9.2,0-16.8,7.5-16.8,16.8s7.5,16.8,16.8,16.8
			h35.8c19.2,0,34.8,15.6,34.8,34.8S169.2,127.4,150.1,127.4z"/>
	</g>
	<g>
		<path class="st0" d="M58.8,75.9h-25c-5,0-9-4-9-9s4-9,9-9h25c5,0,9,4,9,9S63.8,75.9,58.8,75.9z"/>
	</g>
	<g>
		<path class="st0" d="M104.1,127.4H53.8c-5,0-9-4-9-9s4-9,9-9h50.2c5,0,9,4,9,9S109.1,127.4,104.1,127.4z"/>
	</g>
	<g>
		<path class="st2" d="M200.7,117.4h19.7c3.6,0,7-0.5,10-1.5c3.1-1,5.7-2.5,7.9-4.5c2.2-2,4-4.5,5.2-7.4c1.2-2.9,1.9-6.3,1.9-10.1
			c0-4.3-0.8-8-2.2-11c-1.5-3-3.4-5.5-5.7-7.4c-2.3-1.9-4.8-3.3-7.6-4.1c-2.8-0.9-4.5-1-8-1.3h-21.1V58.7h18.1c7,0,13,1.1,17.8,3.2
			c4.9,2.1,8.8,4.9,11.9,8.3c3.1,3.4,5.3,7.2,6.6,11.5c1.4,4.3,2.1,8.6,2.1,12.9c0,5.2-0.9,9.9-2.8,14.1c-1.9,4.2-4.4,7.7-7.6,10.7
			c-3.2,2.9-6.9,5.2-11.1,6.7c-4.2,1.6-8.7,2.3-13.4,2.3h-21.5V117.4z"/>
		<path class="st2" d="M344.7,58.7h11.8v69.7h-11.8V58.7z"/>
		<path class="st2" d="M383.4,58.7l18.6,44.8c0,0.1,0.1,0.5,0.4,1.3c0.3,0.8,0.4,1.5,0.6,2.2c0.1-0.7,0.3-1.4,0.6-2.2
			c0.3-0.8,0.4-1.2,0.5-1.3l18.6-44.8h11.6c-0.3,0.6-0.9,2-1.8,4.3c-1,2.3-2.2,5.1-3.6,8.5c-1.4,3.3-3,7.1-4.8,11.2
			c-1.8,4.1-3.6,8.3-5.4,12.5c-1.8,4.2-3.6,8.4-5.4,12.6c-1.8,4.1-3.3,7.9-4.8,11.2c-1.4,3.3-2.6,6.2-3.6,8.4s-1.6,3.7-1.9,4.3
			c-0.3-0.6-0.9-2-1.8-4.3s-2.2-5.1-3.6-8.4c-1.4-3.3-3-7.1-4.8-11.2c-1.8-4.1-3.6-8.3-5.4-12.6c-1.8-4.2-3.6-8.4-5.4-12.5
			c-1.8-4.1-3.3-7.8-4.8-11.2c-1.4-3.3-2.6-6.2-3.6-8.5c-1-2.3-1.6-3.7-1.8-4.3H383.4z"/>
		<path class="st2" d="M323.9,121c-1.5-2.3-2.9-4.5-4.3-6.7c-1.4-2.2-2.7-4.3-4.1-6.5c-1.3-2.1-2.7-4.3-4.1-6.5
			c1.8-1.1,3.4-2.4,4.8-3.9c1.3-1.5,2.4-3.1,3.3-4.9c0.8-1.8,1.4-3.6,1.8-5.5c0.4-1.9,0.6-3.8,0.6-5.7c0-3.5-0.6-6.7-1.8-9.5
			c-1.2-2.8-2.9-5.2-5.1-7.1s-4.9-3.4-8-4.4c-3.2-1-6.6-1.5-10.5-1.5h-19.7v69.7h11.7V69.7h9.5c2.5,0,4.5,0.4,6.1,1.2
			c1.6,0.8,2.9,1.8,3.8,3.1c0.9,1.2,1.6,2.5,1.9,3.9c0.3,1.4,0.5,2.6,0.5,3.7c0,1.1-0.2,2.4-0.6,3.8c-0.4,1.4-1.1,2.6-2,3.8
			c-1,1.2-2.2,2.2-3.8,3c-1.3,0.7-2.9,1.1-4.7,1.2v11.1c2.4,3.6,4.8,7.3,7.4,11.3c2.5,4,5.3,8.2,8.1,12.7h14.1
			C327,125.8,325.4,123.3,323.9,121z"/>
		<g>
			<rect x="449.6" y="58.7" class="st2" width="46.3" height="10.6"/>
			<rect x="449.6" y="88.1" class="st2" width="42.5" height="10.9"/>
			<rect x="449.6" y="117.5" class="st2" width="47.6" height="10.9"/>
		</g>
		<path class="st2" d="M563.9,121c-1.5-2.3-2.9-4.5-4.3-6.7c-1.4-2.2-2.7-4.3-4.1-6.5c-1.3-2.1-2.7-4.3-4.1-6.5
			c1.8-1.1,3.4-2.4,4.8-3.9c1.3-1.5,2.4-3.1,3.3-4.9c0.8-1.8,1.4-3.6,1.8-5.5c0.4-1.9,0.6-3.8,0.6-5.7c0-3.5-0.6-6.7-1.8-9.5
			c-1.2-2.8-2.9-5.2-5.1-7.1s-4.9-3.4-8-4.4c-3.2-1-6.6-1.5-10.5-1.5h-19.7v69.7h11.7V69.7h9.5c2.5,0,4.5,0.4,6.1,1.2
			c1.6,0.8,2.9,1.8,3.8,3.1c0.9,1.2,1.6,2.5,1.9,3.9c0.3,1.4,0.5,2.6,0.5,3.7c0,1.1-0.2,2.4-0.6,3.8c-0.4,1.4-1.1,2.6-2,3.8
			c-1,1.2-2.2,2.2-3.8,3c-1.3,0.7-2.9,1.1-4.7,1.2v11.1c2.4,3.6,4.8,7.3,7.4,11.3c2.5,4,5.3,8.2,8.1,12.7h14.1
			C566.9,125.8,565.3,123.3,563.9,121z"/>
	</g>
</g>
</svg>
